{"title":"camping fuck xxx","uid":6651646,"size":324661312,"categoryP":"porn","categoryS":"movie_clips","magnet":"?xt=urn:btih:365b45e93b9e90895a658e62f2b5e5592e0c997b&amp;dn=camping+fuck+xxx&amp;tr=udp%3A%2F%2Ftracker.openbittorrent.com%3A80&amp;tr=udp%3A%2F%2Fopen.demonii.com%3A1337&amp;tr=udp%3A%2F%2Ftracker.coppersurfer.tk%3A6969&amp;tr=udp%3A%2F%2Fexodus.desync.com%3A6969","seeders":0,"leechers":1,"uploader":"stu181","files":1,"time":1315171076,"description":"Brought to you by  &lt;a href=&quot; http://www.protorrent.co.uk&quot; rel=&quot;nofollow&quot; target=&quot;_NEW&quot;&gt; http://www.protorrent.co.uk&lt;/a&gt;\n\nFormat : AVI\nFormat/Info : Audio Video Interleave\nFile size : 310 MiB\nDuration : 25mn 43s\nOverall bit rate : 1 682 Kbps\n\nVideo\nID : 0\nFormat : MPEG-4 Visual\nFormat profile : Advanced Simple@L5\nFormat settings, BVOP : No\nFormat settings, QPel : No\nFormat settings, GMC : No warppoints\nFormat settings, Matrix : Default (MPEG)\nCodec ID : XVID\nCodec ID/Hint : XviD\nDuration : 25mn 43s\nBit rate : 1 483 Kbps\nWidth : 640 pixels\nHeight : 480 pixels\nDisplay aspect ratio : 4:3\nFrame rate : 25.000 fps\nColor space : YUV\nChroma subsampling : 4:2:0\nBit depth : 8 bits\nScan type : Progressive\nCompression mode : Lossy\nBits/(Pixel*Frame) : 0.193\nStream size : 273 MiB (88%)\nWriting library : XviD 1.2.1 (UTC 2008-12-04)\n\nAudio\nID : 1\nFormat : MPEG Audio\nFormat version : Version 1\nFormat profile : Layer 3\nCodec ID : 55\nCodec ID/Hint : MP3\nDuration : 25mn 43s\nBit rate mode : Constant\nBit rate : 192 Kbps\nChannel(s) : 2 channels\nSampling rate : 44.1 KHz\nCompression mode : Lossy\nStream size : 35.3 MiB (11%)\nAlignment : Split accross interleaves\nInterleave, duration : 80 ms (2.00 video frames)\nWriting library : LAMELAME_MAJOR_VERSI","torrent":{"xt":"urn:btih:365b45e93b9e90895a658e62f2b5e5592e0c997b","amp;dn":"camping+fuck+xxx","amp;tr":["udp%3A%2F%2Ftracker.openbittorrent.com%3A80","udp%3A%2F%2Fopen.demonii.com%3A1337","udp%3A%2F%2Ftracker.coppersurfer.tk%3A6969","udp%3A%2F%2Fexodus.desync.com%3A6969"],"infoHash":"365b45e93b9e90895a658e62f2b5e5592e0c997b","infoHashBuffer":{"type":"Buffer","data":[54,91,69,233,59,158,144,137,90,101,142,98,242,181,229,89,46,12,153,123]},"announce":[],"urlList":[]}}